<svg xmlns="http://www.w3.org/2000/svg" viewBox="0 0 272 60.3"><path d="M10 3.9c.1-.5.3-.7.6-.8.3 0 .6.2.8.7v.1c.6 1.1 1 2.5 1.2 4.1.2 1.6.5 3.2.7 4.8l.5 3.1v.1c.2 1.4.4 2.8.5 4.1.1 1.3.2 2.7.3 4.1.1 1.2.2 2.5.3 3.7.1 1.2.2 2.5.4 3.8v.1c.1.9.3 1.7.3 2.4l.3 2.4.3 3.2 2 15.9-.2.3v.3c0-.1-.1-.2-.4-.2h-.4v-.2l-.2-.4c-.5-3.2-1-6.3-1.4-9.4-.4-3.1-.8-6.5-1.2-10.2l-.1-.7h-3.8c-.3 0-.8 0-1.3-.1-.6 0-1 0-1.3.1l-.1.9c-.1 1.4-.2 2.7-.4 4.1-.1 1.3-.3 2.7-.4 4-.1.5-.2 1.1-.2 1.6s-.1 1.1-.1 1.6v.1c0 .2 0 .5-.1.8 0 .3-.1.5-.1.8-.1 1.1-.2 2.2-.4 3.3s-.3 2.2-.4 3.3v.1c0 .7-.3 1.1-.8 1.2-.2 0-.5-.1-.6-.3-.2-.5-.3-.8-.3-1.2l.1-.2c.7-4.7 1.2-9.3 1.7-13.9.4-4.5.8-9.4 1.2-14.7 0-.7.1-1.5.3-2.5.1-1 .2-1.9.3-2.8l.3-2.3c.2-2.8.5-5.4.9-7.8.3-2.4.8-4.9 1.2-7.4zm0 10c-.3 2.9-.7 5.8-1 8.6-.3 2.9-.6 5.8-.9 8.9L8 33.6c.4.1.8.1 1.3.1s.9-.1 1.2-.1c.7 0 1.3 0 1.9.1.6.1 1.2 0 1.8-.1l-.3-2.8v-.1c-.1-1.8-.3-3.7-.5-5.6-.2-1.9-.3-3.8-.5-5.6-.1-1.1-.2-2.2-.3-3.5-.1-1.3-.3-2.5-.4-3.8-.2-1.2-.3-2.4-.5-3.6-.2-1.1-.4-2.1-.6-2.9-.1.4-.2 1-.3 1.7l-.3 2.1c-.1.7-.2 1.5-.2 2.3-.2.8-.3 1.5-.3 2.1zm23.9 6.2v20.7c0 1 0 1.9.1 2.7 0 .8 0 1.5.1 2.2 0 .6.1 1.3.1 1.9.1.8.2 1.6.2 2.4 0 .8.1 1.6.1 2.4v1.1c0 .4 0 .8-.1 1.2-.1.7-.3 1.2-.6 1.4-.8 0-1.2-.1-1.2-.3l.1-1.4c0-.7.1-1.5.1-2.2V48c0-.5 0-1.1-.1-1.8v-.9c0-.3-.1-.7-.1-1.2-.1-1.9-.2-3.7-.2-5.2 0-1.6-.1-3-.1-4.4 0-1-.3-1.9-.8-3-.8-1.9-1.6-3.5-2.2-4.9-.7-1.3-1.3-2.6-1.8-3.9-1.3-2.7-2.3-5.1-3.2-7.3-.9-2.2-1.7-4.5-2.5-6.9v.2c-.1 1.4-.1 2.8-.1 4.2v10.3c0 1.3 0 2.6.1 3.9 0 2.5.1 5.1.1 7.7V43c0 2.3 0 4.2.1 5.6 0 1.4.1 2.7.2 4v1c0 .6 0 1-.1 1.2 0 .2-.2.5-.4.8h-.1c-.1.1-.3.1-.6.1s-.5-.2-.5-.5V40.7c0-4.2-.1-8.5-.2-13.1 0-1.8-.1-3.8-.1-5.8V9.2c0-1.7 0-3.6-.1-5.7.1-.4.3-.6.5-.5.7 0 1.2.5 1.6 1.4.1.6.3 1.3.5 2.2.3.9.5 1.8.8 2.7.3.9.6 1.7.9 2.5.3.8.6 1.4.8 1.8v.1c.4.5.7 1 .9 1.5.2.5.5.9.7 1.3.8 1.7 1.5 3.3 2.1 4.8.6 1.5 1.3 2.9 2 4.4l1.5 3.2v-.3c0-4-.1-8.1-.2-12.1s-.1-8-.2-12.1c0-.5.1-.8.3-1 .1-.2.5-.3 1-.3.2.1.3.3.3.4v4.1c0 1.7.1 3.6.1 5.8.2 2.6.2 4.7.2 6.7zm8.8-16.2c.1-.5.3-.7.6-.8.3 0 .6.2.8.7v.1c.5 1.1.9 2.5 1.1 4.1.2 1.6.5 3.2.7 4.8l.5 3.1v.1c.2 1.4.4 2.8.5 4.1.1 1.3.2 2.7.3 4.1.1 1.2.2 2.5.3 3.7.1 1.2.2 2.5.4 3.8v.1c.1.9.3 1.7.3 2.4l.3 2.4.3 3.2 2 15.9-.2.3v.3c0-.1-.1-.2-.4-.2h-.4v-.2l-.3-.4c-.5-3.2-1-6.3-1.4-9.4-.4-3.1-.8-6.5-1.2-10.2l-.1-.7H43c-.3 0-.8 0-1.3-.1-.6 0-1 0-1.3.1l-.1.9c-.1 1.4-.2 2.7-.4 4.1-.1 1.3-.3 2.7-.4 4-.1.5-.2 1.1-.2 1.6s-.1 1.1-.1 1.6v.1c0 .2 0 .5-.1.8 0 .3-.1.5-.1.8-.1 1.1-.2 2.2-.4 3.3s-.3 2.2-.4 3.3v.1c0 .7-.3 1.1-.8 1.2-.2 0-.5-.1-.6-.3-.2-.1-.3-.4-.3-.8l.1-.2c.7-4.7 1.2-9.3 1.7-13.9s.9-9.5 1.3-14.8c0-.7.1-1.5.3-2.5.1-1 .2-1.9.3-2.8l.3-2.3c.2-2.8.5-5.4.9-7.8.4-2.7.8-5.2 1.3-7.7zm-.1 10c-.3 2.9-.7 5.8-1 8.6-.3 2.9-.6 5.8-.9 8.9l-.1 2.2c.4.1.8.1 1.3.1s.9-.1 1.2-.1c.7 0 1.3 0 1.9.1.6.1 1.2 0 1.8-.1l-.3-2.8v-.1c-.1-1.8-.3-3.7-.5-5.6-.2-1.9-.3-3.8-.5-5.6-.1-1.1-.2-2.2-.3-3.5-.1-1.3-.3-2.5-.4-3.8-.2-1.2-.3-2.4-.5-3.6-.2-1.1-.4-2.1-.6-2.9-.1.4-.2 1-.3 1.7l-.3 2.1c-.1.7-.2 1.5-.2 2.3-.2.8-.3 1.5-.3 2.1zM62.7 38c.4 1.4.7 2.8.9 4.2.2 1.4.4 2.8.4 4.3v1.4c0 .3 0 .6-.1.8-.1.7-.3 1.5-.5 2.3-.2.8-.5 1.6-.9 2.4s-.8 1.4-1.2 2c-.5.6-.9 1-1.3 1.2-.5.2-1 .4-1.6.4-1.3 0-2.5-.5-3.6-1.5s-1.9-2.7-2.3-5c-.2-1.3-.4-2.7-.5-4-.1-1.3-.1-2.7-.1-4.1v-1.9c0-.4.1-.8.1-1.1 0-.4.1-.7.2-1 .1-.3.2-.4.4-.4s.3 0 .5.1.3.2.4.3v4.9c0 .8 0 1.6.1 2.4.1.8.2 1.5.3 2.3.1.7.2 1.4.4 2.1.1.7.3 1.4.5 2 .2.6.4 1.2.7 1.7.3.5.6.8.9 1 .2.2.5.4.8.6.3.1.5.2.8.2 1 0 1.9-.5 2.8-1.6.9-1.1 1.5-2.7 1.8-4.9.1-.4.1-.8.1-1.2v-1.5c0-2.2-.3-4.3-1-6.5s-1.4-4.1-2.1-5.9c-.2-.4-.3-.8-.5-1.1-.1-.4-.2-.6-.3-.8V32c-.5-1.1-.9-2.1-1.3-2.9-.4-.8-.8-1.6-1.2-2.2-.7-1.2-1.3-2.3-1.9-3.5-.6-1.2-1.1-2.5-1.5-3.8-.4-1.6-.6-3.3-.6-4.9 0-1.6.2-3.4.7-5.2.5-1.8 1-3.3 1.6-4.4.3-.5.7-.9 1-1.2.3-.2.8-.4 1.5-.5h.6c.7 0 1.3.1 1.8.3.6.2 1 .6 1.5 1.1 1.6 2.4 2.4 5.7 2.4 9.8v.4c0 .4-.3.6-.8.6-.2 0-.3 0-.3-.1-.1-1.2-.3-2.4-.5-3.5s-.4-2.2-.7-3.3v-.4c-.9-2.4-2.1-3.6-3.5-3.6-.2 0-.5 0-.7.1-.3.2-.6.4-.9.8-.4.4-.7.9-1 1.6-.3.6-.5 1.4-.7 2.2-.2.8-.3 1.7-.4 2.7-.1.9-.1 1.8-.2 2.7v.2c0 2.1.3 3.8.9 5.2s1.2 2.8 1.9 4l1.1 2.1 1 1.8c.7 1.3 1.4 2.7 2.1 4.1.7 1.4 1.3 2.9 1.7 4.6l.3 1.2zM78 4.9v.3L74.7 5h-1.5c-.5 0-1 0-1.5-.1v.6c-.1 1.4-.1 2.8-.1 4.2v15.9c0 3.9.2 7.8.4 11.7v15.8c0 1.6-.3 2.7-.8 3.2h-.5l-.3-.6c.1-1.2.1-2.4.1-3.6v-4.8l-.1-4.4c0-2.6-.1-5.4-.2-8.3-.1-2.9-.2-5.7-.1-8.4V6c0-.5 0-.8-.1-1.1h-2l-2.5.1h-.6c-.2 0-.4-.1-.5-.2-.1-.1-.2-.4-.2-.8 0-.3.5-.4 1.4-.4h6.6c1.2 0 2.5-.1 3.7-.2.4 0 .8 0 1.3.1.5 0 .8.2.8.4v1zm4-1c.1-.5.3-.7.6-.8.3 0 .6.2.8.7v.1c.5 1.1.9 2.5 1.2 4.1.2 1.6.5 3.2.7 4.8l.5 3.1v.1c.2 1.4.4 2.8.5 4.1.1 1.3.2 2.7.3 4.1.1 1.2.2 2.5.3 3.7.1 1.2.2 2.5.4 3.8v.1c.1.9.3 1.7.3 2.4l.3 2.4.3 3.2 2 15.9-.2.3v.3c0-.1-.1-.2-.4-.2h-.4v-.2l-.2-.4c-.5-3.2-1-6.3-1.4-9.4-.4-3.1-.8-6.5-1.2-10.2l-.1-.7h-3.8c-.5-.2-1-.2-1.5-.2-.6 0-1 0-1.3.1l-.1.9c-.1 1.4-.2 2.7-.4 4.1-.1 1.3-.3 2.7-.4 4-.1.5-.2 1.1-.2 1.6s-.1 1.1-.1 1.6v.1c0 .2 0 .5-.1.8 0 .3-.1.5-.1.8-.1 1.1-.2 2.2-.4 3.3s-.3 2.2-.4 3.3v.1c0 .7-.3 1.1-.8 1.2-.2 0-.5-.1-.6-.3-.2-.1-.3-.4-.3-.8l.1-.2c.7-4.7 1.2-9.3 1.7-13.9s.9-9.5 1.3-14.8c0-.7.1-1.5.3-2.5.1-1 .2-1.9.3-2.8l.3-2.3c.2-2.8.5-5.4.9-7.8.4-2.6.8-5.1 1.3-7.6zm-.1 10c-.3 2.9-.7 5.8-1 8.6-.3 2.9-.6 5.8-.9 8.9l-.1 2.2c.4.1.8.1 1.3.1s.9-.1 1.2-.1c.7 0 1.3 0 1.9.1.6.1 1.2 0 1.8-.1l-.3-2.8v-.1c-.1-1.8-.3-3.7-.5-5.6-.2-1.9-.3-3.8-.5-5.6-.1-1.1-.2-2.2-.3-3.5-.1-1.3-.3-2.5-.4-3.8-.2-1.2-.3-2.4-.5-3.6-.2-1.1-.4-2.1-.6-2.9-.1.4-.2 1-.3 1.7l-.3 2.1c-.1.7-.2 1.5-.2 2.3-.2.8-.3 1.5-.3 2.1zM102.1 38c.4 1.4.7 2.8.9 4.2.2 1.4.4 2.8.4 4.3v1.4c0 .3 0 .6-.1.8-.1.7-.3 1.5-.5 2.3-.2.8-.5 1.6-.9 2.4s-.8 1.4-1.2 2c-.5.6-.9 1-1.3 1.2-.5.2-1 .4-1.6.4-1.3 0-2.5-.5-3.6-1.5s-1.9-2.7-2.3-5c-.2-1.3-.4-2.7-.5-4-.1-1.3-.1-2.7-.1-4.1v-1.9c0-.4.1-.8.1-1.1 0-.4.1-.7.2-1 .1-.3.2-.4.4-.4s.3 0 .5.1.3.2.4.3v4.9c0 .8 0 1.6.1 2.4.1.8.2 1.5.3 2.3.1.7.2 1.4.4 2.1.1.7.3 1.4.5 2 .2.6.4 1.2.7 1.7.3.5.6.8.9 1 .2.2.5.4.8.6.3.1.5.2.8.2 1 0 1.9-.5 2.8-1.6.9-1.1 1.5-2.7 1.8-4.9.1-.4.1-.8.1-1.2v-1.5c0-2.2-.3-4.3-1-6.5S99.7 35.8 99 34c-.2-.4-.3-.8-.5-1.1-.1-.4-.2-.6-.3-.8V32c-.5-1.1-.9-2.1-1.3-2.9-.4-.8-.8-1.6-1.2-2.2-.7-1.2-1.3-2.3-1.9-3.5-.6-1.2-1.1-2.5-1.5-3.8-.4-1.6-.6-3.3-.6-4.9 0-1.6.2-3.4.7-5.2.5-1.8 1-3.3 1.6-4.4.3-.5.7-.9 1-1.2.3-.2.8-.4 1.5-.5h.6c.7 0 1.3.1 1.8.3.6.2 1 .6 1.5 1.1 1.6 2.4 2.4 5.7 2.4 9.8v.4c0 .4-.3.6-.8.6-.2 0-.3 0-.3-.1-.1-1.2-.3-2.4-.5-3.5s-.4-2.2-.7-3.3v-.4c-.9-2.4-2.1-3.6-3.5-3.6-.2 0-.5 0-.7.1-.2.1-.5.3-.8.7-.4.4-.7.9-1 1.6-.3.6-.5 1.4-.7 2.2-.2.8-.3 1.7-.4 2.7-.1.9-.1 1.8-.2 2.7v.3c0 2.1.3 3.8.9 5.2s1.2 2.8 1.9 4l1.1 2.1 1 1.8c.7 1.3 1.4 2.7 2.1 4.1.7 1.4 1.3 2.9 1.7 4.6l.2 1.2zm6.4-21.6v3.5c0 1.2 0 2.4-.1 3.7 0 1.4-.1 2.9-.1 4.6v4.6c0 1.9 0 3.7.1 5.4 0 1.7.1 3.5.1 5.2 0 1.2.1 2.6.1 4.1v5.9c0 .5 0 .9-.1 1.4-.1.4-.2.8-.3 1.1s-.3.4-.6.4c-.1 0-.3-.1-.5-.4-.2-.2-.3-.8-.3-1.6V14.1c0-.8 0-1.8-.1-3.1 0-1.3-.1-3.1-.1-5.2 0-.5 0-1.1.1-1.6s.2-.8.5-.8c.2 0 .4 0 .6.1.2.1.4.2.5.3l.2 12.6zm7.3 0v3.5c0 1.2 0 2.4-.1 3.7 0 1.4-.1 2.9-.1 4.6v4.6c0 1.9 0 3.7.1 5.4 0 1.7.1 3.5.1 5.2 0 1.2.1 2.6.1 4.1v5.9c0 .5 0 .9-.1 1.4-.1.4-.2.8-.3 1.1s-.3.4-.6.4c-.1 0-.3-.1-.5-.4-.2-.2-.3-.8-.3-1.6V14.1c0-.8 0-1.8-.1-3.1 0-1.3-.1-3.1-.1-5.2 0-.5 0-1.1.1-1.6s.2-.8.5-.8c.2 0 .4 0 .6.1.2.1.4.2.5.3l.2 12.6zm8.9-12.5c.1-.5.3-.7.6-.8.3 0 .6.2.8.7v.1c.5 1.2.9 2.5 1.2 4.1.2 1.6.5 3.2.7 4.8l.5 3.1v.1c.2 1.4.4 2.8.5 4.1.1 1.3.2 2.7.3 4.1.1 1.2.2 2.5.3 3.7.1 1.2.2 2.5.4 3.8v.1c.1.9.3 1.7.3 2.4l.3 2.4.3 3.2 2 15.9-.3.3v.3c0-.1-.1-.2-.4-.2h-.4v-.2l-.3-.4c-.5-3.2-1-6.3-1.4-9.4-.4-3.1-.8-6.5-1.2-10.2l-.1-.7H125c-.3 0-.8 0-1.3-.1-.6 0-1 0-1.3.1l-.1.9c-.1 1.4-.2 2.7-.4 4.1-.1 1.3-.3 2.7-.4 4-.1.5-.2 1.1-.2 1.6s-.1 1.1-.1 1.6v.1c0 .2 0 .5-.1.8 0 .3-.1.5-.1.8-.1 1.1-.2 2.2-.4 3.3s-.3 2.2-.4 3.3v.1c0 .7-.3 1.1-.8 1.2-.2 0-.5-.1-.6-.3-.2-.1-.3-.4-.3-.8l.1-.2c.7-4.7 1.2-9.3 1.7-13.9s.9-9.5 1.3-14.8c0-.7.1-1.5.3-2.5.1-1 .2-1.9.3-2.8l.3-2.3c.2-2.8.5-5.4.9-7.8.4-2.7.8-5.2 1.3-7.7zm-.1 10c-.3 2.9-.7 5.8-1 8.6-.3 2.9-.6 5.8-.9 8.9l-.1 2.2c.4.1.8.1 1.3.1s.9-.1 1.2-.1c.7 0 1.3 0 1.9.1.6.1 1.2 0 1.8-.1l-.3-2.8v-.1c-.1-1.8-.3-3.7-.5-5.6-.2-1.9-.3-3.8-.5-5.6-.1-1.1-.2-2.2-.3-3.5-.1-1.3-.3-2.5-.4-3.8-.2-1.2-.3-2.4-.5-3.6-.2-1.1-.4-2.1-.6-2.9-.1.4-.2 1-.3 1.7l-.3 2.1c-.1.7-.2 1.5-.2 2.3-.2.8-.3 1.5-.3 2.1zm25.4 42c-.1.1-.3.2-.5.3s-.4.1-.6.1c-.2 0-.4-.3-.5-.8-.1-.5-.1-1.1-.1-1.6 0-2.2.1-3.9.1-5.1 0-1.2 0-2.2.1-2.8v-4c0-.6 0-1.1.1-1.6v-8.6c-.6-3-1.2-5.9-1.9-8.6-.5-2.4-1.1-4.7-1.6-7.2-.5-2.4-1.1-5-1.6-7.8l-.3-1.4c-.1-.4-.2-.9-.3-1.4-.1-.5-.2-.9-.2-1.2s.3-.4.8-.4c.2 0 .4.1.5.2l2.1 9.3c.5 2.3 1.1 4.7 1.7 7.2.6 2.5 1.1 5 1.6 7.4.9-3.8 1.6-7 2.2-9.5.6-2.5 1-4.6 1.4-6.3.4-1.7.6-3 .8-4 .2-1 .3-1.9.4-2.7.1-.4.2-.7.4-1 .2-.3.5-.5.9-.5.2 0 .4 0 .4.1s.1.2.1.3c0 .3-.1 1.1-.4 2.3-.3 1.2-.6 2.6-1 4.1-.2 1-.5 2-.7 3.1-.2 1.1-.5 2.1-.7 3.2l-1.7 7.6c-.2 1.3-.5 2.5-.7 3.6-.2 1.1-.5 2.3-.8 3.6v2.6c0 .8 0 1.7.1 2.5 0 1.3.1 2.5.1 3.7V50c0 1.9-.1 4-.3 6.2v-.3zm16.9-52.1h.9c.4 0 .7.1 1 .1.3.2.4.3.4.4 0 .1 0 .3.1.6 0 .2-.2.4-.7.4-.6 0-1.2 0-1.8-.1-.6-.1-1.1-.1-1.6-.1h-2.4c-.8 0-1.6.1-2.5.2v.9c0 3.5 0 6.9-.1 10.3-.1 3.4-.1 6.9-.1 10.3l-.1.9c.6 0 1.3 0 2.1.1.8 0 1.5.1 2.2.1h.7c.5 0 .8.3.9.9v.1c0 .1-.2.2-.6.2h-1c-.2 0-.5-.1-.7-.1h-2c-.5 0-.9.1-1.3.1v.6c0 .7-.1 1.3-.1 2v8.6l-.1 6v8.2c.4.1.9.2 1.4.2h1.5c.5 0 1-.1 1.6-.2.5-.1 1.1-.2 1.7-.2.4 0 .8.1 1 .3.3.2.4.6.4 1.1v.1l-1.4-.1h-.8c-.3 0-.6 0-1.1.1-.4 0-.9 0-1.5.1h-3.1c-.3 0-.5-.1-.7-.3-.2-.2-.3-.8-.3-1.7.1-1.5.1-3.1.1-4.8 0-1.7-.1-3.5-.1-5.4V25.9c0-1 0-1.9.1-2.7 0-.8 0-1.6.1-2.3V10.7c0-.7-.1-1.4-.1-2.1v-3c0-.1 0-.3-.1-.5v-.6c0-.2.2-.3.4-.5.2-.1.5-.2 1-.2h2.6c1.1 0 1.9 0 2.7-.1.4.1 1 .1 1.4.1zm14.6 3.1c.3.8.6 1.6.8 2.4.2.8.4 1.6.4 2.2l.2 1.3c.1.9.2 1.8.2 2.8v6.5c0 .6 0 1.6-.1 2.9v.4c0 .8-.1 1.6-.2 2.5-.1.9-.4 1.8-.6 2.7-.3.9-.6 1.6-1 2.2-.4.6-.8 1-1.3 1.2-.3.1-.4.3-.4.7 0 .3.1 1 .4 1.9.4 1.8.8 3.4 1.2 4.8.4 1.3.8 2.9 1.3 4.7v.1c.4 1.5.8 2.9 1.1 4.1.3 1.2.7 2.7 1.1 4.4v1c-.1.1-.3.2-.7.2-.3 0-.6-.6-1-1.7-.4-1.2-.8-2.5-1.2-3.9-.4-1.5-.8-2.9-1.1-4.3-.3-1.4-.5-2.4-.7-3l-2-8.1c-.2.1-.5.1-1 .1-.7 0-1.8-.1-3.3-.4l.2 12.5c0 1.3.1 2.5 0 3.6 0 1.1 0 2.2.1 3.3v.5c0 1-.1 1.5-.2 1.7h-1c-.3 0-.5-.1-.5-.2V41.3c-.1-1.1-.1-2.4-.1-3.8s0-2.7-.1-3.9V13.2c0-1 0-2-.1-3l-.1-5.1c0-1 .3-1.4.8-1.4s.9 0 1.3.1c.4 0 .9.1 1.7.1h.5c.2 0 .7 0 1.5.1 1.2.3 2 .6 2.6 1 .5.5 1 1.1 1.3 1.9zm0 5.7c-.4-3.5-1.3-5.6-2.6-6.2l-1.5-.8c-.2 0-.6 0-1-.1s-.9-.1-1.4-.1c-.8 0-1.3.2-1.7.5v.9c0 .6 0 1.1.1 1.5v13.6l.1 6.3v4.7l1.2.3c.2.1.6.2 1.2.2h.9c1 0 1.8-.3 2.5-.9.6-.6 1.2-1.5 1.5-2.5.4-1.1.6-2.3.7-3.6.1-1.3.2-2.7.2-4.2v-5.9c0-.9 0-1.6-.1-2.2 0-.7 0-1.2-.1-1.5zm21.1-7.7c.8.7 1.6 1.6 2.4 2.7.8 1.1 1.3 2.4 1.6 3.9.4 1.8.7 3.4.9 4.8.2 1.4.4 2.7.5 3.8.1 1.4.2 2.9.2 4.4 0 1.6.1 3.1.1 4.6v2.6c0 .9 0 1.8.1 2.8 0 2.7-.2 5.3-.6 7.9-.4 2.6-1.1 5-1.9 7.4v.1c-.7 1.4-1.4 2.7-2.1 3.7-.7 1-1.8 2-3.1 3-1.1.5-2.1.8-3 .8-1.4 0-2.7-.5-3.9-1.4-1.2-1-2.1-2-2.8-3.1-.8-1.4-1.5-3.1-2.1-4.9-.6-1.8-1-3.7-1.3-5.7-.3-2-.5-4.1-.6-6.2-.1-2.2-.2-4.3-.2-6.5.1-4.3.5-8.2 1-11.7s1.2-6.5 2.2-9.1c1-2.4 2.4-4.1 4-4.9.6-.3 1.2-.5 1.9-.6.7-.1 1.3-.2 1.9-.2.9 0 1.8.2 2.6.6.5.3 1.3.7 2.2 1.2zm-1.1.8c-.6-.5-1.3-.8-2.1-1.1-.7-.2-1.5-.4-2.1-.4-.3 0-.6 0-1 .1-.4 0-.8.2-1.2.4-1.9.7-3.3 2.3-4.2 4.8-.9 2.4-1.5 5.7-1.9 9.6-.1 1.2-.3 2.4-.4 3.8-.1 1.4-.2 2.7-.3 3.8 0 .8-.1 1.4 0 2 0 .6 0 1.2-.1 2v1.2c0 1.3.1 2.7.2 4.2s.3 3.1.5 4.6v.1c.2 2.1.5 3.9 1 5.7.5 1.7 1.2 3.4 2.2 5 .5.9 1 1.5 1.4 2 .4.5.9.9 1.4 1.2.5.3 1 .5 1.5.8.5.2.9.3 1.4.2l1.2-.1c1.6-.5 2.8-1.6 3.7-3.1.9-1.6 1.7-3.5 2.6-5.9.2-.8.5-1.8.8-3.1.3-1.3.5-3 .7-5.1.1-.7.1-1.4.1-2.2V25.9c0-.8 0-1.6-.1-2.4l-.1-4.6-.3-2.1c-.4-2.5-1.1-4.8-1.9-6.9-.9-2-1.9-3.4-3-4.2zm24.7 7.7v5.1c0 .8-.1 1.7-.1 2.5v23.3c0 3.7.1 6.8.2 9.1 0 .3.1.6.1.9v1.9s-.1.1-.3.2c-.1.1-.3.1-.4.1-.2 0-.4 0-.6-.1-.2-.1-.3-.1-.3-.2l-.4-16.6V17l.1-8.1c-.4 1.8-.9 3.6-1.3 5.6s-.8 3.7-1 5.2c-.1.5-.3 1.2-.4 2.1-.1.9-.3 1.8-.4 2.8-.2 1.5-.5 2.9-.8 4.3-.3 1.4-.8 2.5-1.3 3.5-.5-.3-.9-1-1.2-1.9-.3-.9-.6-2-.8-3.2v-.1c-.6-2.3-1.2-4.4-1.6-6.2-.4-1.8-.8-3.7-1.2-5.8l-.6-2.7c-.1-.8-.3-1.7-.5-2.8-.2-1.1-.4-2.2-.6-3.1v.1c.1 3.3.2 6.5.2 9.5s.1 5.7.1 8v18.1c0 .8-.1 1.7-.1 2.6v.6c0 .8-.1 1.6-.1 2.4v2.7l.2 4.5v.5c0 .2-.1.3-.4.4.2 0 .1 0-.3.1-.1 0-.3 0-.5-.1s-.3-.2-.4-.3c0-1-.1-2.1-.1-3.2V45c0-1.2 0-2.2.1-3.2 0-.9.1-1.8.1-2.8V20.8c0-1.2 0-2.3-.1-3.4 0-3.4-.2-6.7-.4-9.9V4.4l.2-.2.3-.3c.1-.1.2-.2.2-.3 0-.1.2-.2.6-.3h.4c.2 0 .5.1.7.4s.4.9.6 1.8l.9 4.7v.1l.6 2.1c.1.7.3 1.3.4 1.8v.3c0 .1.1.3.1.6s.1.7.3 1.3c.1.6.3 1.4.5 2.4l2.2 9.6v.1l.1-.2v-.1l.4-2.5c.6-2.3 1-4.4 1.4-6.2.3-1.8.6-3.4.9-4.7 0-.1.1-.4.1-.8.3-2.5.8-4.5 1.5-6 .2-.8.4-1.5.6-2.1.1-.6.2-1.2.2-1.8 0-.5.2-.7.4-.7s.4 0 .8.1c.3.1.5.2.6.3l.1 9.6zm6.5 3v3.5c0 1.2 0 2.4-.1 3.7 0 1.4-.1 2.9-.1 4.6v4.6c0 1.9 0 3.7.1 5.4 0 1.7.1 3.5.1 5.2 0 1.2.1 2.6.1 4.1v5.9c0 .5 0 .9-.1 1.4-.1.4-.2.8-.3 1.1-.1.3-.3.4-.6.4-.1 0-.3-.1-.5-.4s-.3-.8-.3-1.6V14.1c0-.8 0-1.8-.1-3.1 0-1.3-.1-3.1-.1-5.2 0-.5 0-1.1.1-1.6s.2-.8.5-.8c.2 0 .4 0 .6.1.2.1.4.2.5.3l.2 12.6zm18.5 3.7v20.7c0 1 0 1.9.1 2.7 0 .8 0 1.5.1 2.2 0 .6.1 1.3.1 1.9.1.8.2 1.6.2 2.4 0 .8.1 1.6.1 2.4v1.1c0 .4 0 .8-.1 1.2-.1.7-.3 1.2-.6 1.4-.8 0-1.2-.1-1.2-.3l.1-1.4c0-.7.1-1.5.1-2.2V48c0-.5 0-1.1-.1-1.8v-.9c0-.3-.1-.7-.1-1.2-.1-1.9-.2-3.7-.2-5.2 0-1.6-.1-3-.1-4.4 0-1-.3-1.9-.8-3-.8-1.9-1.6-3.5-2.2-4.9-.7-1.3-1.3-2.6-1.8-3.9-1.3-2.7-2.3-5.1-3.2-7.3-.9-2.2-1.7-4.5-2.5-6.9v.2c-.1 1.4-.1 2.8-.1 4.2v10.3c0 1.3 0 2.6.1 3.9 0 2.5.1 5.1.1 7.7V43c0 2.3 0 4.2.1 5.6 0 1.4.1 2.7.2 4v1c0 .6 0 1-.1 1.2 0 .2-.2.5-.4.8h-.1c-.1 0-.3.1-.6.1s-.5-.2-.5-.5V40.7c0-4.2-.1-8.5-.2-13.1 0-1.8-.1-3.8-.1-5.8V9.2c0-1.7 0-3.6-.1-5.7.1-.4.3-.6.5-.5.7 0 1.2.5 1.6 1.4.1.6.3 1.3.5 2.2.3.9.5 1.8.8 2.7.3.9.6 1.7.9 2.5s.6 1.4.8 1.8v.1c.4.5.7 1 .9 1.5.2.5.5.9.7 1.3.8 1.7 1.5 3.3 2.1 4.8.6 1.5 1.3 2.9 2 4.4l1.5 3.2v-.3c0-4-.1-8.1-.2-12.1s-.1-8-.2-12.1c0-.5.1-.8.3-1 .1-.2.5-.3 1-.3.2.1.3.3.3.4v4.1c0 1.7.1 3.6.1 5.8.1 2.6.2 4.7.2 6.7zm8.7-16.2c.1-.5.3-.7.6-.8.3 0 .6.2.8.7v.1c.5 1.2.9 2.5 1.2 4.1.2 1.6.5 3.2.7 4.8l.5 3.1v.1c.2 1.4.4 2.8.5 4.1.1 1.3.2 2.7.3 4.1.1 1.2.2 2.5.3 3.7.1 1.2.2 2.5.4 3.8v.1c.1.9.3 1.7.3 2.4l.3 2.4.3 3.2 2 15.9-.3.3v.3c0-.1-.1-.2-.4-.2h-.4v-.2l-.3-.4c-.5-3.2-1-6.3-1.4-9.4-.4-3.1-.8-6.5-1.2-10.2l-.1-.7h-3.8c-.3 0-.8 0-1.3-.1-.6 0-1 0-1.3.1l-.1.9c-.1 1.4-.2 2.7-.4 4.1-.1 1.3-.3 2.7-.4 4-.1.5-.2 1.1-.2 1.6s-.1 1.1-.1 1.6v.1c0 .2 0 .5-.1.8 0 .3-.1.5-.1.8-.1 1.1-.2 2.2-.4 3.3-.1 1.1-.3 2.2-.4 3.3v.1c0 .7-.3 1.1-.8 1.2-.2 0-.5-.1-.6-.3-.2-.1-.3-.4-.3-.8l.1-.2c.7-4.7 1.2-9.3 1.7-13.9s.9-9.5 1.3-14.8c0-.7.1-1.5.3-2.5.1-1 .2-1.9.3-2.8l.3-2.3c.2-2.8.5-5.4.9-7.8.4-2.7.9-5.2 1.3-7.7zm0 10c-.3 2.9-.7 5.8-1 8.6-.3 2.9-.6 5.8-.9 8.9l-.1 2.2c.4.1.8.1 1.3.1s.9-.1 1.2-.1c.7 0 1.3 0 1.9.1.6.1 1.2 0 1.8-.1l-.3-2.8v-.1c-.1-1.8-.3-3.7-.5-5.6-.2-1.9-.3-3.8-.5-5.6-.1-1.1-.2-2.2-.3-3.5-.1-1.3-.3-2.5-.4-3.8-.2-1.2-.3-2.4-.5-3.6-.2-1.1-.4-2.1-.6-2.9-.1.4-.2 1-.3 1.7l-.3 2.1c-.1.7-.2 1.5-.2 2.3-.2.8-.3 1.5-.3 2.1z"/></svg>