<svg xmlns="http://www.w3.org/2000/svg" viewBox="0 0 512 512"><path d="M490.626 153.442c-13.697-31.292-33.236-59.158-58.073-82.819a8.015 8.015 0 0 0-11.335.275 8.015 8.015 0 0 0 .275 11.333c48.024 45.751 74.473 107.464 74.473 173.769 0 132.318-107.648 239.967-239.967 239.967S16.033 388.318 16.033 256 123.682 16.033 256 16.033c48.336 0 94.93 14.306 134.742 41.369a8.017 8.017 0 0 0 9.014-13.259C357.274 15.265 307.565 0 256 0 187.62 0 123.333 26.628 74.981 74.981 26.629 123.333 0 187.62 0 256s26.629 132.667 74.981 181.019C123.333 485.372 187.62 512 256 512s132.667-26.628 181.019-74.981C485.371 388.667 512 324.38 512 256c0-35.652-7.192-70.158-21.374-102.558z"/><path d="M372.333 108.552l-154.176 71.771c-4.014 1.868-5.753 6.638-3.884 10.652s6.638 5.755 10.65 3.885l95.106-44.274-46.237 37.431-106.107 85.896-58.036-25.392 81.326-37.858a8.017 8.017 0 0 0 3.884-10.652c-1.868-4.014-6.639-5.755-10.65-3.885l-87.54 40.752a12.962 12.962 0 0 0-7.474 12.035 12.954 12.954 0 0 0 7.748 11.55l64.802 28.35 18.979 113.873c1.168 7.041 10.702 9.046 14.613 3.075l53.836-82.171 101.811 47.512c8.157 3.81 17.864-2.012 18.39-10.966l14.344-243.849c.015-.226.014-.458.009-.685-.16-5.675-6.256-9.426-11.394-7.05zM190.018 360.931l-12.404-74.428 126.369-102.299-96.718 108.441a8.097 8.097 0 0 0-1.816 3.479l-15.431 64.807zm17.031-2.3l11.72-49.228 15.724 7.338-27.444 41.89zm36.322-55.44l-16.967-7.917 83.469-93.586-12.073 18.428-54.429 83.075zm110.266 51.458l-95.586-44.607 107.897-164.684-12.311 209.291z"/></svg>