<?xml version="1.0" encoding="utf-8"?>
<svg version="1.1" xmlns="http://www.w3.org/2000/svg" xmlns:xlink="http://www.w3.org/1999/xlink" x="0px" y="0px"
	 viewBox="0 0 272 60.3" style="enable-background:new 0 0 272 60.3;" xml:space="preserve">
<g id="XMLID_3_">
	<path id="XMLID_4_" d="M10,3.9c0.1-0.5,0.3-0.7,0.6-0.8c0.3,0,0.6,0.2,0.8,0.7v0.1C12,5,12.4,6.4,12.6,8c0.2,1.6,0.5,3.2,0.7,4.8
		l0.5,3.1v0.1c0.2,1.4,0.4,2.8,0.5,4.1c0.1,1.3,0.2,2.7,0.3,4.1c0.1,1.2,0.2,2.5,0.3,3.7c0.1,1.2,0.2,2.5,0.4,3.8v0.1
		c0.1,0.9,0.3,1.7,0.3,2.4c0.1,0.8,0.2,1.6,0.3,2.4l0.3,3.2l2,15.9L18,56v0.3c0-0.1-0.1-0.2-0.4-0.2c-0.3,0-0.4,0-0.4,0
		c0,0,0-0.1,0-0.1v-0.1L17,55.5c-0.5-3.2-1-6.3-1.4-9.4c-0.4-3.1-0.8-6.5-1.2-10.2l-0.1-0.7c-0.1,0-0.3,0-0.7,0s-0.8,0-1.2,0
		c-0.5,0-0.9,0-1.3,0c-0.4,0-0.6,0-0.6,0c-0.3,0-0.8,0-1.3-0.1c-0.6,0-1,0-1.3,0.1l-0.1,0.9c-0.1,1.4-0.2,2.7-0.4,4.1
		c-0.1,1.3-0.3,2.7-0.4,4c-0.1,0.5-0.2,1.1-0.2,1.6c0,0.5-0.1,1.1-0.1,1.6v0.1c0,0.2,0,0.5-0.1,0.8c0,0.3-0.1,0.5-0.1,0.8
		c-0.1,1.1-0.2,2.2-0.4,3.3s-0.3,2.2-0.4,3.3v0.1c0,0.7-0.3,1.1-0.8,1.2c-0.2,0-0.5-0.1-0.6-0.3C4.1,56.2,4,55.9,4,55.5l0.1-0.2
		c0.7-4.7,1.2-9.3,1.7-13.9C6.2,36.9,6.6,32,7,26.7c0-0.7,0.1-1.5,0.3-2.5c0.1-1,0.2-1.9,0.3-2.8l0.3-2.3c0.2-2.8,0.5-5.4,0.9-7.8
		C9.1,8.9,9.6,6.4,10,3.9z M10,13.9c-0.3,2.9-0.7,5.8-1,8.6c-0.3,2.9-0.6,5.8-0.9,8.9L8,33.6c0.4,0.1,0.8,0.1,1.3,0.1
		c0.5,0,0.9-0.1,1.2-0.1c0.7,0,1.3,0,1.9,0.1c0.6,0.1,1.2,0,1.8-0.1l-0.3-2.8v-0.1c-0.1-1.8-0.3-3.7-0.5-5.6
		c-0.2-1.9-0.3-3.8-0.5-5.6c-0.1-1.1-0.2-2.2-0.3-3.5c-0.1-1.3-0.3-2.5-0.4-3.8c-0.2-1.2-0.3-2.4-0.5-3.6c-0.2-1.1-0.4-2.1-0.6-2.9
		c-0.1,0.4-0.2,1-0.3,1.7c-0.1,0.7-0.2,1.4-0.3,2.1c-0.1,0.7-0.2,1.5-0.2,2.3C10.1,12.6,10,13.3,10,13.9z"/>
	<path id="XMLID_7_" d="M33.9,20.1c0,1.6,0,3.2,0,4.8c0,1.5,0,3,0,4.5v7.9c0,1.3,0,2.5,0,3.5c0,1,0,1.9,0.1,2.7c0,0.8,0,1.5,0.1,2.2
		c0,0.6,0.1,1.3,0.1,1.9c0.1,0.8,0.2,1.6,0.2,2.4c0,0.8,0.1,1.6,0.1,2.4c0,0.3,0,0.7,0,1.1c0,0.4,0,0.8-0.1,1.2
		c-0.1,0.7-0.3,1.2-0.6,1.4c-0.8,0-1.2-0.1-1.2-0.3l0.1-1.4c0-0.7,0.1-1.5,0.1-2.2s0-1.5,0-2.2c0-0.8,0-1.5,0-2c0-0.5,0-1.1-0.1-1.8
		c0-0.2,0-0.5,0-0.9c0-0.3-0.1-0.7-0.1-1.2c-0.1-1.9-0.2-3.7-0.2-5.2c0-1.6-0.1-3-0.1-4.4c0-1-0.3-1.9-0.8-3
		c-0.8-1.9-1.6-3.5-2.2-4.9c-0.7-1.3-1.3-2.6-1.8-3.9c-1.3-2.7-2.3-5.1-3.2-7.3c-0.9-2.2-1.7-4.5-2.5-6.9l0,0.2
		c-0.1,1.4-0.1,2.8-0.1,4.2s0,2.7,0,3.9v2.5c0,1.3,0,2.7,0,3.9c0,1.3,0,2.6,0.1,3.9c0,2.5,0.1,5.1,0.1,7.7c0,2.6,0,5.4,0,8.2
		c0,2.3,0,4.2,0.1,5.6c0,1.4,0.1,2.7,0.2,4v1c0,0.6,0,1-0.1,1.2c0,0.2-0.2,0.5-0.4,0.8c0,0,0,0-0.1,0c-0.1,0.1-0.3,0.1-0.6,0.1
		c-0.3,0-0.5-0.2-0.5-0.5c0-1.8,0-3.4,0-4.7c0-1.3,0-2.6,0-3.9v-5.9c0-4.2-0.1-8.5-0.2-13.1c0-1.8-0.1-3.8-0.1-5.8c0-2,0-4.3,0-6.7
		c0-2.2,0-4.2,0-5.9s0-3.6-0.1-5.7c0.1-0.4,0.3-0.6,0.5-0.5c0.7,0,1.2,0.5,1.6,1.4c0.1,0.6,0.3,1.3,0.5,2.2c0.3,0.9,0.5,1.8,0.8,2.7
		c0.3,0.9,0.6,1.7,0.9,2.5c0.3,0.8,0.6,1.4,0.8,1.8v0.1c0.4,0.5,0.7,1,0.9,1.5c0.2,0.5,0.5,0.9,0.7,1.3c0.8,1.7,1.5,3.3,2.1,4.8
		c0.6,1.5,1.3,2.9,2,4.4l1.5,3.2v-0.3c0-4-0.1-8.1-0.2-12.1c-0.1-4-0.1-8-0.2-12.1c0-0.5,0.1-0.8,0.3-1c0.1-0.2,0.5-0.3,1-0.3
		c0.2,0.1,0.3,0.3,0.3,0.4c0,0.7,0,1.3,0,2c0,0.6,0,1.3,0,2.1c0,1.7,0.1,3.6,0.1,5.8C33.9,16,33.9,18.1,33.9,20.1z"/>
	<path id="XMLID_9_" d="M42.7,3.9c0.1-0.5,0.3-0.7,0.6-0.8c0.3,0,0.6,0.2,0.8,0.7v0.1C44.6,5,45,6.4,45.2,8c0.2,1.6,0.5,3.2,0.7,4.8
		l0.5,3.1v0.1c0.2,1.4,0.4,2.8,0.5,4.1c0.1,1.3,0.2,2.7,0.3,4.1c0.1,1.2,0.2,2.5,0.3,3.7c0.1,1.2,0.2,2.5,0.4,3.8v0.1
		c0.1,0.9,0.3,1.7,0.3,2.4c0.1,0.8,0.2,1.6,0.3,2.4l0.3,3.2l2,15.9L50.6,56v0.3c0-0.1-0.1-0.2-0.4-0.2c-0.3,0-0.4,0-0.4,0
		c0,0,0-0.1,0-0.1v-0.1l-0.3-0.4c-0.5-3.2-1-6.3-1.4-9.4c-0.4-3.1-0.8-6.5-1.2-10.2l-0.1-0.7c-0.1,0-0.3,0-0.7,0s-0.8,0-1.2,0
		c-0.5,0-0.9,0-1.3,0c-0.4,0-0.6,0-0.6,0c-0.3,0-0.8,0-1.3-0.1c-0.6,0-1,0-1.3,0.1l-0.1,0.9c-0.1,1.4-0.2,2.7-0.4,4.1
		c-0.1,1.3-0.3,2.7-0.4,4c-0.1,0.5-0.2,1.1-0.2,1.6c0,0.5-0.1,1.1-0.1,1.6v0.1c0,0.2,0,0.5-0.1,0.8c0,0.3-0.1,0.5-0.1,0.8
		c-0.1,1.1-0.2,2.2-0.4,3.3s-0.3,2.2-0.4,3.3v0.1c0,0.7-0.3,1.1-0.8,1.2c-0.2,0-0.5-0.1-0.6-0.3c-0.2-0.1-0.3-0.4-0.3-0.8l0.1-0.2
		c0.7-4.7,1.2-9.3,1.7-13.9c0.5-4.6,0.9-9.5,1.3-14.8c0-0.7,0.1-1.5,0.3-2.5c0.1-1,0.2-1.9,0.3-2.8l0.3-2.3c0.2-2.8,0.5-5.4,0.9-7.8
		C41.8,8.9,42.2,6.4,42.7,3.9z M42.6,13.9c-0.3,2.9-0.7,5.8-1,8.6c-0.3,2.9-0.6,5.8-0.9,8.9l-0.1,2.2c0.4,0.1,0.8,0.1,1.3,0.1
		c0.5,0,0.9-0.1,1.2-0.1c0.7,0,1.3,0,1.9,0.1c0.6,0.1,1.2,0,1.8-0.1l-0.3-2.8v-0.1c-0.1-1.8-0.3-3.7-0.5-5.6
		c-0.2-1.9-0.3-3.8-0.5-5.6c-0.1-1.1-0.2-2.2-0.3-3.5c-0.1-1.3-0.3-2.5-0.4-3.8c-0.2-1.2-0.3-2.4-0.5-3.6c-0.2-1.1-0.4-2.1-0.6-2.9
		c-0.1,0.4-0.2,1-0.3,1.7c-0.1,0.7-0.2,1.4-0.3,2.1c-0.1,0.7-0.2,1.5-0.2,2.3C42.7,12.6,42.6,13.3,42.6,13.9z"/>
	<path id="XMLID_12_" d="M62.7,38c0.4,1.4,0.7,2.8,0.9,4.2c0.2,1.4,0.4,2.8,0.4,4.3v0.6c0,0.2,0,0.5,0,0.8c0,0.3,0,0.6-0.1,0.8
		c-0.1,0.7-0.3,1.5-0.5,2.3c-0.2,0.8-0.5,1.6-0.9,2.4s-0.8,1.4-1.2,2c-0.5,0.6-0.9,1-1.3,1.2c-0.5,0.2-1,0.4-1.6,0.4
		c-1.3,0-2.5-0.5-3.6-1.5c-1.1-1-1.9-2.7-2.3-5c-0.2-1.3-0.4-2.7-0.5-4c-0.1-1.3-0.1-2.7-0.1-4.1v-1.1c0-0.1,0-0.4,0-0.8
		c0-0.4,0.1-0.8,0.1-1.1c0-0.4,0.1-0.7,0.2-1c0.1-0.3,0.2-0.4,0.4-0.4s0.3,0,0.5,0.1c0.2,0.1,0.3,0.2,0.4,0.3v1.7c0,0.2,0,0.4,0,0.6
		c0,0.2,0,0.4,0,0.6v2c0,0.8,0,1.6,0.1,2.4c0.1,0.8,0.2,1.5,0.3,2.3c0.1,0.7,0.2,1.4,0.4,2.1c0.1,0.7,0.3,1.4,0.5,2
		c0.2,0.6,0.4,1.2,0.7,1.7c0.3,0.5,0.6,0.8,0.9,1c0.2,0.2,0.5,0.4,0.8,0.6c0.3,0.1,0.5,0.2,0.8,0.2c1,0,1.9-0.5,2.8-1.6
		c0.9-1.1,1.5-2.7,1.8-4.9c0.1-0.4,0.1-0.8,0.1-1.2s0-0.9,0-1.5c0-2.2-0.3-4.3-1-6.5c-0.7-2.2-1.4-4.1-2.1-5.9
		c-0.2-0.4-0.3-0.8-0.5-1.1c-0.1-0.4-0.2-0.6-0.3-0.8v-0.1c-0.5-1.1-0.9-2.1-1.3-2.9c-0.4-0.8-0.8-1.6-1.2-2.2
		c-0.7-1.2-1.3-2.3-1.9-3.5c-0.6-1.2-1.1-2.5-1.5-3.8c-0.4-1.6-0.6-3.3-0.6-4.9c0-1.6,0.2-3.4,0.7-5.2c0.5-1.8,1-3.3,1.6-4.4
		c0.3-0.5,0.7-0.9,1-1.2c0.3-0.2,0.8-0.4,1.5-0.5h0.3c0,0,0.1,0,0.1,0c0,0,0.1,0,0.2,0c0.7,0,1.3,0.1,1.8,0.3c0.6,0.2,1,0.6,1.5,1.1
		c1.6,2.4,2.4,5.7,2.4,9.8v0.4c0,0.4-0.3,0.6-0.8,0.6c-0.2,0-0.3,0-0.3-0.1c-0.1-1.2-0.3-2.4-0.5-3.5c-0.2-1.1-0.4-2.2-0.7-3.3V8.3
		c-0.9-2.4-2.1-3.6-3.5-3.6c-0.2,0-0.5,0-0.7,0.1C56.6,5,56.3,5.2,56,5.6c-0.4,0.4-0.7,0.9-1,1.6c-0.3,0.6-0.5,1.4-0.7,2.2
		c-0.2,0.8-0.3,1.7-0.4,2.7c-0.1,0.9-0.1,1.8-0.2,2.7V15c0,2.1,0.3,3.8,0.9,5.2s1.2,2.8,1.9,4l1.1,2.1l1,1.8
		c0.7,1.3,1.4,2.7,2.1,4.1c0.7,1.4,1.3,2.9,1.7,4.6L62.7,38z"/>
	<path id="XMLID_14_" d="M78,4.9v0.3L74.7,5c-0.5,0-1,0-1.5,0c-0.5,0-1,0-1.5-0.1v0.6c-0.1,1.4-0.1,2.8-0.1,4.2c0,1.3,0,2.7,0,4.2
		c0,3.9,0,7.8,0,11.7c0,3.9,0.2,7.8,0.4,11.7v15.8c0,1.6-0.3,2.7-0.8,3.2H71c0,0-0.1,0-0.1,0c0,0-0.1,0-0.2,0l-0.3-0.6
		c0.1-1.2,0.1-2.4,0.1-3.6c0-1.2,0-2.8,0-4.8l-0.1-4.4c0-2.6-0.1-5.4-0.2-8.3c-0.1-2.9-0.2-5.7-0.1-8.4v-7.6c0-1,0-2,0-3.2
		c0-1.2,0-2.2,0-3.1v-5c0-0.4,0-0.8,0-1.3c0-0.5,0-0.8-0.1-1.1h-2l-2.5,0.1h-0.6c-0.2,0-0.4-0.1-0.5-0.2c-0.1-0.1-0.2-0.4-0.2-0.8
		c0-0.3,0.5-0.4,1.4-0.4c0.4,0,0.8,0,1.2,0c0.4,0,0.9,0,1.4,0c1.4,0,2.7,0,4,0c1.2,0,2.5-0.1,3.7-0.2c0.4,0,0.8,0,1.3,0.1
		c0.5,0,0.8,0.2,0.8,0.4L78,4.9z"/>
	<path id="XMLID_16_" d="M82,3.9c0.1-0.5,0.3-0.7,0.6-0.8c0.3,0,0.6,0.2,0.8,0.7v0.1C83.9,5,84.3,6.4,84.6,8
		c0.2,1.6,0.5,3.2,0.7,4.8l0.5,3.1v0.1c0.2,1.4,0.4,2.8,0.5,4.1c0.1,1.3,0.2,2.7,0.3,4.1c0.1,1.2,0.2,2.5,0.3,3.7
		c0.1,1.2,0.2,2.5,0.4,3.8v0.1c0.1,0.9,0.3,1.7,0.3,2.4c0.1,0.8,0.2,1.6,0.3,2.4l0.3,3.2l2,15.9L90,56v0.3c0-0.1-0.1-0.2-0.4-0.2
		c-0.3,0-0.4,0-0.4,0c0,0,0-0.1,0-0.1v-0.1L89,55.5c-0.5-3.2-1-6.3-1.4-9.4c-0.4-3.1-0.8-6.5-1.2-10.2l-0.1-0.7c-0.1,0-0.3,0-0.7,0
		s-0.8,0-1.2,0c-0.5,0-0.9,0-1.3,0c-0.4,0-0.6,0-0.6,0C82,35,81.5,35,81,35c-0.6,0-1,0-1.3,0.1l-0.1,0.9c-0.1,1.4-0.2,2.7-0.4,4.1
		c-0.1,1.3-0.3,2.7-0.4,4c-0.1,0.5-0.2,1.1-0.2,1.6c0,0.5-0.1,1.1-0.1,1.6v0.1c0,0.2,0,0.5-0.1,0.8c0,0.3-0.1,0.5-0.1,0.8
		c-0.1,1.1-0.2,2.2-0.4,3.3s-0.3,2.2-0.4,3.3v0.1c0,0.7-0.3,1.1-0.8,1.2c-0.2,0-0.5-0.1-0.6-0.3c-0.2-0.1-0.3-0.4-0.3-0.8l0.1-0.2
		c0.7-4.7,1.2-9.3,1.7-13.9c0.5-4.6,0.9-9.5,1.3-14.8c0-0.7,0.1-1.5,0.3-2.5c0.1-1,0.2-1.9,0.3-2.8l0.3-2.3c0.2-2.8,0.5-5.4,0.9-7.8
		C81.1,8.9,81.5,6.4,82,3.9z M81.9,13.9c-0.3,2.9-0.7,5.8-1,8.6c-0.3,2.9-0.6,5.8-0.9,8.9l-0.1,2.2c0.4,0.1,0.8,0.1,1.3,0.1
		c0.5,0,0.9-0.1,1.2-0.1c0.7,0,1.3,0,1.9,0.1c0.6,0.1,1.2,0,1.8-0.1l-0.3-2.8v-0.1c-0.1-1.8-0.3-3.7-0.5-5.6
		c-0.2-1.9-0.3-3.8-0.5-5.6c-0.1-1.1-0.2-2.2-0.3-3.5c-0.1-1.3-0.3-2.5-0.4-3.8c-0.2-1.2-0.3-2.4-0.5-3.6c-0.2-1.1-0.4-2.1-0.6-2.9
		c-0.1,0.4-0.2,1-0.3,1.7c-0.1,0.7-0.2,1.4-0.3,2.1c-0.1,0.7-0.2,1.5-0.2,2.3C82,12.6,81.9,13.3,81.9,13.9z"/>
	<path id="XMLID_19_" d="M102.1,38c0.4,1.4,0.7,2.8,0.9,4.2c0.2,1.4,0.4,2.8,0.4,4.3v0.6c0,0.2,0,0.5,0,0.8c0,0.3,0,0.6-0.1,0.8
		c-0.1,0.7-0.3,1.5-0.5,2.3c-0.2,0.8-0.5,1.6-0.9,2.4s-0.8,1.4-1.2,2c-0.5,0.6-0.9,1-1.3,1.2c-0.5,0.2-1,0.4-1.6,0.4
		c-1.3,0-2.5-0.5-3.6-1.5c-1.1-1-1.9-2.7-2.3-5c-0.2-1.3-0.4-2.7-0.5-4c-0.1-1.3-0.1-2.7-0.1-4.1v-1.1c0-0.1,0-0.4,0-0.8
		c0-0.4,0.1-0.8,0.1-1.1c0-0.4,0.1-0.7,0.2-1c0.1-0.3,0.2-0.4,0.4-0.4s0.3,0,0.5,0.1c0.2,0.1,0.3,0.2,0.4,0.3v1.7c0,0.2,0,0.4,0,0.6
		c0,0.2,0,0.4,0,0.6v2c0,0.8,0,1.6,0.1,2.4c0.1,0.8,0.2,1.5,0.3,2.3c0.1,0.7,0.2,1.4,0.4,2.1c0.1,0.7,0.3,1.4,0.5,2
		c0.2,0.6,0.4,1.2,0.7,1.7c0.3,0.5,0.6,0.8,0.9,1c0.2,0.2,0.5,0.4,0.8,0.6c0.3,0.1,0.5,0.2,0.8,0.2c1,0,1.9-0.5,2.8-1.6
		c0.9-1.1,1.5-2.7,1.8-4.9c0.1-0.4,0.1-0.8,0.1-1.2s0-0.9,0-1.5c0-2.2-0.3-4.3-1-6.5c-0.7-2.2-1.4-4.1-2.1-5.9
		c-0.2-0.4-0.3-0.8-0.5-1.1c-0.1-0.4-0.2-0.6-0.3-0.8v-0.1c-0.5-1.1-0.9-2.1-1.3-2.9c-0.4-0.8-0.8-1.6-1.2-2.2
		c-0.7-1.2-1.3-2.3-1.9-3.5c-0.6-1.2-1.1-2.5-1.5-3.8c-0.4-1.6-0.6-3.3-0.6-4.9c0-1.6,0.2-3.4,0.7-5.2c0.5-1.8,1-3.3,1.6-4.4
		c0.3-0.5,0.7-0.9,1-1.2c0.3-0.2,0.8-0.4,1.5-0.5h0.3c0,0,0.1,0,0.1,0c0,0,0.1,0,0.2,0c0.7,0,1.3,0.1,1.8,0.3c0.6,0.2,1,0.6,1.5,1.1
		c1.6,2.4,2.4,5.7,2.4,9.8v0.4c0,0.4-0.3,0.6-0.8,0.6c-0.2,0-0.3,0-0.3-0.1c-0.1-1.2-0.3-2.4-0.5-3.5c-0.2-1.1-0.4-2.2-0.7-3.3V8.3
		c-0.9-2.4-2.1-3.6-3.5-3.6c-0.2,0-0.5,0-0.7,0.1c-0.2,0.1-0.5,0.3-0.8,0.7c-0.4,0.4-0.7,0.9-1,1.6c-0.3,0.6-0.5,1.4-0.7,2.2
		c-0.2,0.8-0.3,1.7-0.4,2.7c-0.1,0.9-0.1,1.8-0.2,2.7V15c0,2.1,0.3,3.8,0.9,5.2s1.2,2.8,1.9,4l1.1,2.1l1,1.8
		c0.7,1.3,1.4,2.7,2.1,4.1c0.7,1.4,1.3,2.9,1.7,4.6L102.1,38z"/>
	<path id="XMLID_21_" d="M108.5,16.4c0,1.1,0,2.3,0,3.5c0,1.2,0,2.4-0.1,3.7c0,1.4-0.1,2.9-0.1,4.6c0,1.7,0,3.2,0,4.6
		c0,1.9,0,3.7,0.1,5.4c0,1.7,0.1,3.5,0.1,5.2c0,1.2,0.1,2.6,0.1,4.1c0,1.5,0,2.9,0,4.2V52c0,0.4,0,0.9,0,1.4c0,0.5,0,0.9-0.1,1.4
		c-0.1,0.4-0.2,0.8-0.3,1.1s-0.3,0.4-0.6,0.4c-0.1,0-0.3-0.1-0.5-0.4c-0.2-0.2-0.3-0.8-0.3-1.6V20.1c0-0.5,0-1.1,0-1.7
		c0-0.6,0-1.2,0-1.8c0-0.2,0-0.5,0-0.8c0-0.3,0-0.9,0-1.7c0-0.8,0-1.8-0.1-3.1c0-1.3-0.1-3.1-0.1-5.2c0-0.5,0-1.1,0.1-1.6
		c0.1-0.5,0.2-0.8,0.5-0.8c0.2,0,0.4,0,0.6,0.1c0.2,0.1,0.4,0.2,0.5,0.3L108.5,16.4z"/>
	<path id="XMLID_23_" d="M115.8,16.4c0,1.1,0,2.3,0,3.5c0,1.2,0,2.4-0.1,3.7c0,1.4-0.1,2.9-0.1,4.6c0,1.7,0,3.2,0,4.6
		c0,1.9,0,3.7,0.1,5.4c0,1.7,0.1,3.5,0.1,5.2c0,1.2,0.1,2.6,0.1,4.1c0,1.5,0,2.9,0,4.2V52c0,0.4,0,0.9,0,1.4c0,0.5,0,0.9-0.1,1.4
		c-0.1,0.4-0.2,0.8-0.3,1.1s-0.3,0.4-0.6,0.4c-0.1,0-0.3-0.1-0.5-0.4c-0.2-0.2-0.3-0.8-0.3-1.6V20.1c0-0.5,0-1.1,0-1.7
		c0-0.6,0-1.2,0-1.8c0-0.2,0-0.5,0-0.8c0-0.3,0-0.9,0-1.7c0-0.8,0-1.8-0.1-3.1c0-1.3-0.1-3.1-0.1-5.2c0-0.5,0-1.1,0.1-1.6
		c0.1-0.5,0.2-0.8,0.5-0.8c0.2,0,0.4,0,0.6,0.1c0.2,0.1,0.4,0.2,0.5,0.3L115.8,16.4z"/>
	<path id="XMLID_25_" d="M124.7,3.9c0.1-0.5,0.3-0.7,0.6-0.8c0.3,0,0.6,0.2,0.8,0.7v0.1c0.5,1.2,0.9,2.5,1.2,4.1
		c0.2,1.6,0.5,3.2,0.7,4.8l0.5,3.1v0.1c0.2,1.4,0.4,2.8,0.5,4.1c0.1,1.3,0.2,2.7,0.3,4.1c0.1,1.2,0.2,2.5,0.3,3.7
		c0.1,1.2,0.2,2.5,0.4,3.8v0.1c0.1,0.9,0.3,1.7,0.3,2.4c0.1,0.8,0.2,1.6,0.3,2.4l0.3,3.2l2,15.9l-0.3,0.3v0.3c0-0.1-0.1-0.2-0.4-0.2
		c-0.3,0-0.4,0-0.4,0c0,0,0-0.1,0-0.1v-0.1l-0.3-0.4c-0.5-3.2-1-6.3-1.4-9.4c-0.4-3.1-0.8-6.5-1.2-10.2l-0.1-0.7c-0.1,0-0.3,0-0.7,0
		s-0.8,0-1.2,0c-0.5,0-0.9,0-1.3,0c-0.4,0-0.6,0-0.6,0c-0.3,0-0.8,0-1.3-0.1c-0.6,0-1,0-1.3,0.1l-0.1,0.9c-0.1,1.4-0.2,2.7-0.4,4.1
		c-0.1,1.3-0.3,2.7-0.4,4c-0.1,0.5-0.2,1.1-0.2,1.6c0,0.5-0.1,1.1-0.1,1.6v0.1c0,0.2,0,0.5-0.1,0.8c0,0.3-0.1,0.5-0.1,0.8
		c-0.1,1.1-0.2,2.2-0.4,3.3s-0.3,2.2-0.4,3.3v0.1c0,0.7-0.3,1.1-0.8,1.2c-0.2,0-0.5-0.1-0.6-0.3c-0.2-0.1-0.3-0.4-0.3-0.8l0.1-0.2
		c0.7-4.7,1.2-9.3,1.7-13.9c0.5-4.6,0.9-9.5,1.3-14.8c0-0.7,0.1-1.5,0.3-2.5c0.1-1,0.2-1.9,0.3-2.8l0.3-2.3c0.2-2.8,0.5-5.4,0.9-7.8
		C123.8,8.9,124.2,6.4,124.7,3.9z M124.6,13.9c-0.3,2.9-0.7,5.8-1,8.6c-0.3,2.9-0.6,5.8-0.9,8.9l-0.1,2.2c0.4,0.1,0.8,0.1,1.3,0.1
		c0.5,0,0.9-0.1,1.2-0.1c0.7,0,1.3,0,1.9,0.1c0.6,0.1,1.2,0,1.8-0.1l-0.3-2.8v-0.1c-0.1-1.8-0.3-3.7-0.5-5.6
		c-0.2-1.9-0.3-3.8-0.5-5.6c-0.1-1.1-0.2-2.2-0.3-3.5c-0.1-1.3-0.3-2.5-0.4-3.8c-0.2-1.2-0.3-2.4-0.5-3.6c-0.2-1.1-0.4-2.1-0.6-2.9
		c-0.1,0.4-0.2,1-0.3,1.7c-0.1,0.7-0.2,1.4-0.3,2.1c-0.1,0.7-0.2,1.5-0.2,2.3C124.7,12.6,124.6,13.3,124.6,13.9z"/>
	<path id="XMLID_28_" d="M150,55.9c-0.1,0.1-0.3,0.2-0.5,0.3s-0.4,0.1-0.6,0.1c-0.2,0-0.4-0.3-0.5-0.8c-0.1-0.5-0.1-1.1-0.1-1.6
		c0-2.2,0.1-3.9,0.1-5.1c0-1.2,0-2.2,0.1-2.8c0-0.6,0-1.1,0-1.4c0-0.3,0-0.5,0-0.8c0-0.6,0-1.2,0-1.8c0-0.6,0-1.1,0.1-1.6v-0.1
		c0-0.5,0-1,0-1.5c0-0.5,0-1,0-1.5v-5.5c-0.6-3-1.2-5.9-1.9-8.6c-0.5-2.4-1.1-4.7-1.6-7.2c-0.5-2.4-1.1-5-1.6-7.8l-0.3-1.4
		c-0.1-0.4-0.2-0.9-0.3-1.4c-0.1-0.5-0.2-0.9-0.2-1.2s0.3-0.4,0.8-0.4c0.2,0,0.4,0.1,0.5,0.2l2.1,9.3c0.5,2.3,1.1,4.7,1.7,7.2
		c0.6,2.5,1.1,5,1.6,7.4c0.9-3.8,1.6-7,2.2-9.5c0.6-2.5,1-4.6,1.4-6.3c0.4-1.7,0.6-3,0.8-4c0.2-1,0.3-1.9,0.4-2.7
		c0.1-0.4,0.2-0.7,0.4-1c0.2-0.3,0.5-0.5,0.9-0.5c0.2,0,0.4,0,0.4,0.1c0,0.1,0.1,0.2,0.1,0.3c0,0.3-0.1,1.1-0.4,2.3
		c-0.3,1.2-0.6,2.6-1,4.1c-0.2,1-0.5,2-0.7,3.1c-0.2,1.1-0.5,2.1-0.7,3.2l-1.7,7.6c-0.2,1.3-0.5,2.5-0.7,3.6
		c-0.2,1.1-0.5,2.3-0.8,3.6v0.1c0,0.8,0,1.6,0,2.5c0,0.8,0,1.7,0.1,2.5c0,1.3,0.1,2.5,0.1,3.7c0,1.2,0,2.4,0,3.5c0,2,0,3.9,0,5.9
		c0,1.9-0.1,4-0.3,6.2V55.9z"/>
	<path id="XMLID_30_" d="M166.9,3.8c0.2,0,0.5,0,0.9,0c0.4,0,0.7,0.1,1,0.1c0.3,0.2,0.4,0.3,0.4,0.4c0,0.1,0,0.3,0.1,0.6
		c0,0.2-0.2,0.4-0.7,0.4c-0.6,0-1.2,0-1.8-0.1c-0.6-0.1-1.1-0.1-1.6-0.1c-0.8,0-1.6,0-2.4,0c-0.8,0-1.6,0.1-2.5,0.2v0.9
		c0,3.5,0,6.9-0.1,10.3c-0.1,3.4-0.1,6.9-0.1,10.3l-0.1,0.9c0.6,0,1.3,0,2.1,0.1c0.8,0,1.5,0.1,2.2,0.1h0.7c0.5,0,0.8,0.3,0.9,0.9
		v0.1c0,0.1-0.2,0.2-0.6,0.2h-1c-0.2,0-0.5-0.1-0.7-0.1c-0.2,0-0.4,0-0.7,0c-0.4,0-0.8,0-1.3,0c-0.5,0-0.9,0.1-1.3,0.1v0.6
		c0,0.7-0.1,1.3-0.1,2c0,0.7,0,1.4,0,2.1v2.7c0,0.5,0,1,0,1.4c0,0.5,0,1,0,1.5v0.9l-0.1,6c0,0.2,0,0.5,0,0.9c0,0.4,0,1.3,0,2.8v4.5
		c0.4,0.1,0.9,0.2,1.4,0.2c0.6,0,1.1,0,1.5,0c0.5,0,1-0.1,1.6-0.2c0.5-0.1,1.1-0.2,1.7-0.2c0.4,0,0.8,0.1,1,0.3
		c0.3,0.2,0.4,0.6,0.4,1.1v0.1l-1.4-0.1c-0.2,0-0.5,0-0.8,0c-0.3,0-0.6,0-1.1,0.1c-0.4,0-0.9,0-1.5,0.1c-0.6,0-1.3,0-2.2,0h-0.6
		h-0.3c-0.3,0-0.5-0.1-0.7-0.3c-0.2-0.2-0.3-0.8-0.3-1.7c0.1-1.5,0.1-3.1,0.1-4.8c0-1.7-0.1-3.5-0.1-5.4c0-1.3,0-2.7,0-4.1
		c0-1.4,0-2.8,0-4.2v-6c0-1.3,0-2.5,0-3.5c0-1,0-1.9,0.1-2.7c0-0.8,0-1.6,0.1-2.3c0-0.7,0-1.6,0-2.5v-1.6c0-1.5,0-2.7,0-3.6
		c0-0.9,0-1.7,0-2.4v-0.1c0-0.7-0.1-1.4-0.1-2.1c0-0.7,0-1.7,0-2.8V5.6c0-0.1,0-0.3-0.1-0.5c0-0.2,0-0.4,0-0.6
		c0-0.2,0.2-0.3,0.4-0.5c0.2-0.1,0.5-0.2,1-0.2c0.2,0,0.5,0,0.7,0c0.2,0,0.5,0,0.8,0h1.1c1.1,0,1.9,0,2.7-0.1
		C165.9,3.8,166.5,3.8,166.9,3.8z"/>
	<path id="XMLID_32_" d="M181.5,6.9c0.3,0.8,0.6,1.6,0.8,2.4c0.2,0.8,0.4,1.6,0.4,2.2l0.2,1.3c0.1,0.9,0.2,1.8,0.2,2.8
		c0,1,0,2.5,0,4.5c0,0.7,0,1.4,0,2c0,0.6,0,1.6-0.1,2.9v0.4c0,0.8-0.1,1.6-0.2,2.5c-0.1,0.9-0.4,1.8-0.6,2.7c-0.3,0.9-0.6,1.6-1,2.2
		c-0.4,0.6-0.8,1-1.3,1.2c-0.3,0.1-0.4,0.3-0.4,0.7c0,0.3,0.1,1,0.4,1.9c0.4,1.8,0.8,3.4,1.2,4.8c0.4,1.3,0.8,2.9,1.3,4.7v0.1
		c0.4,1.5,0.8,2.9,1.1,4.1c0.3,1.2,0.7,2.7,1.1,4.4v0.3c0,0.1,0,0.2,0,0.2c0,0,0,0.1,0,0.2v0.3c-0.1,0.1-0.3,0.2-0.7,0.2
		c-0.3,0-0.6-0.6-1-1.7c-0.4-1.2-0.8-2.5-1.2-3.9c-0.4-1.5-0.8-2.9-1.1-4.3c-0.3-1.4-0.5-2.4-0.7-3l-2-8.1c-0.2,0.1-0.5,0.1-1,0.1
		c-0.7,0-1.8-0.1-3.3-0.4l0.2,12.5c0,1.3,0.1,2.5,0,3.6c0,1.1,0,2.2,0.1,3.3v0.5c0,1-0.1,1.5-0.2,1.7c-0.3,0-0.7,0-1,0
		c-0.3,0-0.5-0.1-0.5-0.2V45.5c0-0.7,0-1.4,0-2.1c0-0.7,0-1.3,0-2v-0.1c-0.1-1.1-0.1-2.4-0.1-3.8c0-1.4,0-2.7-0.1-3.9v-5.5
		c0-1,0-2,0-3c0-1,0-2,0-3v-5.8c0-1,0-2,0-3.1c0-1,0-2-0.1-3l-0.1-5.1c0-1,0.3-1.4,0.8-1.4c0.5,0,0.9,0,1.3,0.1
		c0.4,0,0.9,0.1,1.7,0.1c0.1,0,0.3,0,0.5,0s0.7,0,1.5,0.1c1.2,0.3,2,0.6,2.6,1C180.7,5.5,181.2,6.1,181.5,6.9z M181.5,12.6
		c-0.4-3.5-1.3-5.6-2.6-6.2l-1.5-0.8c-0.2,0-0.6,0-1-0.1c-0.4-0.1-0.9-0.1-1.4-0.1c-0.8,0-1.3,0.2-1.7,0.5v0.9c0,0.6,0,1.1,0.1,1.5
		c0,0.5,0,0.9,0,1.5c0,0.7,0,1.4,0,2.1c0,0.7,0,1.4,0,2.1v3.7c0,0.7,0,1.4,0,2.1c0,0.7,0,1.4,0,2.1l0.1,6.3v4.7l1.2,0.3
		c0.2,0.1,0.6,0.2,1.2,0.2h0.9c1,0,1.8-0.3,2.5-0.9c0.6-0.6,1.2-1.5,1.5-2.5c0.4-1.1,0.6-2.3,0.7-3.6c0.1-1.3,0.2-2.7,0.2-4.2
		c0-1.1,0-2.1,0-3.1c0-1,0-2,0-2.8c0-0.9,0-1.6-0.1-2.2C181.6,13.4,181.6,12.9,181.5,12.6z"/>
	<path id="XMLID_35_" d="M202.6,4.9c0.8,0.7,1.6,1.6,2.4,2.7c0.8,1.1,1.3,2.4,1.6,3.9c0.4,1.8,0.7,3.4,0.9,4.8
		c0.2,1.4,0.4,2.7,0.5,3.8c0.1,1.4,0.2,2.9,0.2,4.4c0,1.6,0.1,3.1,0.1,4.6c0,0.9,0,1.7,0,2.6c0,0.9,0,1.8,0.1,2.8
		c0,2.7-0.2,5.3-0.6,7.9c-0.4,2.6-1.1,5-1.9,7.4v0.1c-0.7,1.4-1.4,2.7-2.1,3.7c-0.7,1-1.8,2-3.1,3c-1.1,0.5-2.1,0.8-3,0.8
		c-1.4,0-2.7-0.5-3.9-1.4c-1.2-1-2.1-2-2.8-3.1c-0.8-1.4-1.5-3.1-2.1-4.9c-0.6-1.8-1-3.7-1.3-5.7c-0.3-2-0.5-4.1-0.6-6.2
		c-0.1-2.2-0.2-4.3-0.2-6.5c0.1-4.3,0.5-8.2,1-11.7c0.5-3.5,1.2-6.5,2.2-9.1c1-2.4,2.4-4.1,4-4.9c0.6-0.3,1.2-0.5,1.9-0.6
		c0.7-0.1,1.3-0.2,1.9-0.2c0.9,0,1.8,0.2,2.6,0.6C200.9,4,201.7,4.4,202.6,4.9z M201.5,5.7c-0.6-0.5-1.3-0.8-2.1-1.1
		c-0.7-0.2-1.5-0.4-2.1-0.4c-0.3,0-0.6,0-1,0.1c-0.4,0-0.8,0.2-1.2,0.4c-1.9,0.7-3.3,2.3-4.2,4.8c-0.9,2.4-1.5,5.7-1.9,9.6
		c-0.1,1.2-0.3,2.4-0.4,3.8c-0.1,1.4-0.2,2.7-0.3,3.8c0,0.8-0.1,1.4,0,2c0,0.6,0,1.2-0.1,2v1.2c0,1.3,0.1,2.7,0.2,4.2
		c0.1,1.5,0.3,3.1,0.5,4.6v0.1c0.2,2.1,0.5,3.9,1,5.7c0.5,1.7,1.2,3.4,2.2,5c0.5,0.9,1,1.5,1.4,2c0.4,0.5,0.9,0.9,1.4,1.2
		c0.5,0.3,1,0.5,1.5,0.8c0.5,0.2,0.9,0.3,1.4,0.2l1.2-0.1c1.6-0.5,2.8-1.6,3.7-3.1c0.9-1.6,1.7-3.5,2.6-5.9c0.2-0.8,0.5-1.8,0.8-3.1
		c0.3-1.3,0.5-3,0.7-5.1c0.1-0.7,0.1-1.4,0.1-2.2c0-0.7,0-1.5,0-2.4v-2v-3.5c0-0.8,0-1.6,0-2.4c0-0.8,0-1.6-0.1-2.4l-0.1-4.6
		l-0.3-2.1c-0.4-2.5-1.1-4.8-1.9-6.9C203.6,7.9,202.6,6.5,201.5,5.7z"/>
	<path id="XMLID_38_" d="M226.2,13.4c0,0.4,0,0.9,0,1.3c0,0.4,0,0.8,0,1.3v2.5c0,0.8-0.1,1.7-0.1,2.5c0,0.9,0,1.7,0,2.6v1.4
		c0,0.2,0,0.5,0,0.8c0,0.3,0,0.6,0,0.9v3.6c0,0.7,0,1.3,0,2c0,0.7,0,1.4,0,2.2v9.8c0,3.7,0.1,6.8,0.2,9.1c0,0.3,0.1,0.6,0.1,0.9
		c0,0.3,0,0.6,0,0.8c0,0.4,0,0.6,0,0.8c0,0.1,0,0.2,0,0.3c0,0-0.1,0.1-0.3,0.2c-0.1,0.1-0.3,0.1-0.4,0.1c-0.2,0-0.4,0-0.6-0.1
		c-0.2-0.1-0.3-0.1-0.3-0.2l-0.4-16.6V25.4c0-0.5,0-1,0-1.5c0-0.5,0-1,0-1.5v-2.5c0-0.4,0-0.9,0-1.4c0-0.5,0-1,0-1.5l0.1-8.1
		c-0.4,1.8-0.9,3.6-1.3,5.6s-0.8,3.7-1,5.2c-0.1,0.5-0.3,1.2-0.4,2.1c-0.1,0.9-0.3,1.8-0.4,2.8c-0.2,1.5-0.5,2.9-0.8,4.3
		c-0.3,1.4-0.8,2.5-1.3,3.5c-0.5-0.3-0.9-1-1.2-1.9c-0.3-0.9-0.6-2-0.8-3.2v-0.1c-0.6-2.3-1.2-4.4-1.6-6.2c-0.4-1.8-0.8-3.7-1.2-5.8
		l-0.6-2.7c-0.1-0.8-0.3-1.7-0.5-2.8c-0.2-1.1-0.4-2.2-0.6-3.1v0.1c0.1,3.3,0.2,6.5,0.2,9.5c0,3,0.1,5.7,0.1,8v15.3c0,1,0,1.9,0,2.8
		c0,0.8-0.1,1.7-0.1,2.6v0.6c0,0.8-0.1,1.6-0.1,2.4c0,0.8,0,1.7,0,2.7l0.2,4.5v0.3c0,0,0,0.1,0,0.1s0,0.1,0,0.1
		c0,0.2-0.1,0.3-0.4,0.4c0.2,0,0.1,0-0.3,0.1c-0.1,0-0.3,0-0.5-0.1c-0.2-0.1-0.3-0.2-0.4-0.3c0-1-0.1-2.1-0.1-3.2c0-1.1,0-2.3,0-3.7
		c0-1.4,0-2.7,0-3.8c0-1.2,0-2.2,0.1-3.2c0-0.9,0.1-1.8,0.1-2.8c0-1,0-2,0-3.1V24.6c0-1.3,0-2.6,0-3.8c0-1.2,0-2.3-0.1-3.4
		c0-3.4-0.2-6.7-0.4-9.9c0-0.2,0-0.5,0-0.8c0-0.3,0-0.6,0-1c0-0.4,0-0.7,0-0.9c0-0.1,0-0.3,0-0.4c0,0,0.1-0.1,0.2-0.2
		c0.1-0.1,0.2-0.2,0.3-0.3c0.1-0.1,0.2-0.2,0.2-0.3c0-0.1,0.2-0.2,0.6-0.3h0.4c0.2,0,0.5,0.1,0.7,0.4s0.4,0.9,0.6,1.8l0.9,4.7v0.1
		c0.2,0.7,0.4,1.4,0.6,2.1c0.1,0.7,0.3,1.3,0.4,1.8v0.1c0,0,0,0.1,0,0.2c0,0.1,0.1,0.3,0.1,0.6c0,0.3,0.1,0.7,0.3,1.3
		c0.1,0.6,0.3,1.4,0.5,2.4l2.2,9.6v0.1l0.1-0.2v-0.1l0.4-2.5c0.6-2.3,1-4.4,1.4-6.2c0.3-1.8,0.6-3.4,0.9-4.7c0-0.1,0.1-0.4,0.1-0.8
		c0.3-2.5,0.8-4.5,1.5-6c0.2-0.8,0.4-1.5,0.6-2.1c0.1-0.6,0.2-1.2,0.2-1.8c0-0.5,0.2-0.7,0.4-0.7c0.2,0,0.4,0,0.8,0.1
		c0.3,0.1,0.5,0.2,0.6,0.3L226.2,13.4z"/>
	<path id="XMLID_40_" d="M232.7,16.4c0,1.1,0,2.3,0,3.5c0,1.2,0,2.4-0.1,3.7c0,1.4-0.1,2.9-0.1,4.6c0,1.7,0,3.2,0,4.6
		c0,1.9,0,3.7,0.1,5.4c0,1.7,0.1,3.5,0.1,5.2c0,1.2,0.1,2.6,0.1,4.1c0,1.5,0,2.9,0,4.2V52c0,0.4,0,0.9,0,1.4c0,0.5,0,0.9-0.1,1.4
		c-0.1,0.4-0.2,0.8-0.3,1.1c-0.1,0.3-0.3,0.4-0.6,0.4c-0.1,0-0.3-0.1-0.5-0.4s-0.3-0.8-0.3-1.6V20.1c0-0.5,0-1.1,0-1.7
		c0-0.6,0-1.2,0-1.8c0-0.2,0-0.5,0-0.8c0-0.3,0-0.9,0-1.7c0-0.8,0-1.8-0.1-3.1c0-1.3-0.1-3.1-0.1-5.2c0-0.5,0-1.1,0.1-1.6
		c0.1-0.5,0.2-0.8,0.5-0.8c0.2,0,0.4,0,0.6,0.1c0.2,0.1,0.4,0.2,0.5,0.3L232.7,16.4z"/>
	<path id="XMLID_42_" d="M251.2,20.1c0,1.6,0,3.2,0,4.8c0,1.5,0,3,0,4.5v7.9c0,1.3,0,2.5,0,3.5c0,1,0,1.9,0.1,2.7
		c0,0.8,0,1.5,0.1,2.2c0,0.6,0.1,1.3,0.1,1.9c0.1,0.8,0.2,1.6,0.2,2.4c0,0.8,0.1,1.6,0.1,2.4c0,0.3,0,0.7,0,1.1c0,0.4,0,0.8-0.1,1.2
		c-0.1,0.7-0.3,1.2-0.6,1.4c-0.8,0-1.2-0.1-1.2-0.3l0.1-1.4c0-0.7,0.1-1.5,0.1-2.2s0-1.5,0-2.2c0-0.8,0-1.5,0-2c0-0.5,0-1.1-0.1-1.8
		c0-0.2,0-0.5,0-0.9c0-0.3-0.1-0.7-0.1-1.2c-0.1-1.9-0.2-3.7-0.2-5.2c0-1.6-0.1-3-0.1-4.4c0-1-0.3-1.9-0.8-3
		c-0.8-1.9-1.6-3.5-2.2-4.9c-0.7-1.3-1.3-2.6-1.8-3.9c-1.3-2.7-2.3-5.1-3.2-7.3c-0.9-2.2-1.7-4.5-2.5-6.9l0,0.2
		c-0.1,1.4-0.1,2.8-0.1,4.2s0,2.7,0,3.9v2.5c0,1.3,0,2.7,0,3.9c0,1.3,0,2.6,0.1,3.9c0,2.5,0.1,5.1,0.1,7.7c0,2.6,0,5.4,0,8.2
		c0,2.3,0,4.2,0.1,5.6c0,1.4,0.1,2.7,0.2,4v1c0,0.6,0,1-0.1,1.2c0,0.2-0.2,0.5-0.4,0.8c0,0,0,0-0.1,0s-0.3,0.1-0.6,0.1
		c-0.3,0-0.5-0.2-0.5-0.5c0-1.8,0-3.4,0-4.7c0-1.3,0-2.6,0-3.9v-5.9c0-4.2-0.1-8.5-0.2-13.1c0-1.8-0.1-3.8-0.1-5.8c0-2,0-4.3,0-6.7
		c0-2.2,0-4.2,0-5.9s0-3.6-0.1-5.7c0.1-0.4,0.3-0.6,0.5-0.5c0.7,0,1.2,0.5,1.6,1.4c0.1,0.6,0.3,1.3,0.5,2.2c0.3,0.9,0.5,1.8,0.8,2.7
		c0.3,0.9,0.6,1.7,0.9,2.5s0.6,1.4,0.8,1.8v0.1c0.4,0.5,0.7,1,0.9,1.5c0.2,0.5,0.5,0.9,0.7,1.3c0.8,1.7,1.5,3.3,2.1,4.8
		c0.6,1.5,1.3,2.9,2,4.4l1.5,3.2v-0.3c0-4-0.1-8.1-0.2-12.1c-0.1-4-0.1-8-0.2-12.1c0-0.5,0.1-0.8,0.3-1c0.1-0.2,0.5-0.3,1-0.3
		c0.2,0.1,0.3,0.3,0.3,0.4c0,0.7,0,1.3,0,2c0,0.6,0,1.3,0,2.1c0,1.7,0.1,3.6,0.1,5.8C251.1,16,251.2,18.1,251.2,20.1z"/>
	<path id="XMLID_44_" d="M259.9,3.9c0.1-0.5,0.3-0.7,0.6-0.8c0.3,0,0.6,0.2,0.8,0.7v0.1c0.5,1.2,0.9,2.5,1.2,4.1
		c0.2,1.6,0.5,3.2,0.7,4.8l0.5,3.1v0.1c0.2,1.4,0.4,2.8,0.5,4.1c0.1,1.3,0.2,2.7,0.3,4.1c0.1,1.2,0.2,2.5,0.3,3.7
		c0.1,1.2,0.2,2.5,0.4,3.8v0.1c0.1,0.9,0.3,1.7,0.3,2.4c0.1,0.8,0.2,1.6,0.3,2.4l0.3,3.2l2,15.9l-0.3,0.3v0.3c0-0.1-0.1-0.2-0.4-0.2
		s-0.4,0-0.4,0c0,0,0-0.1,0-0.1v-0.1l-0.3-0.4c-0.5-3.2-1-6.3-1.4-9.4c-0.4-3.1-0.8-6.5-1.2-10.2l-0.1-0.7c-0.1,0-0.3,0-0.7,0
		c-0.4,0-0.8,0-1.2,0c-0.5,0-0.9,0-1.3,0c-0.4,0-0.6,0-0.6,0c-0.3,0-0.8,0-1.3-0.1c-0.6,0-1,0-1.3,0.1l-0.1,0.9
		c-0.1,1.4-0.2,2.7-0.4,4.1c-0.1,1.3-0.3,2.7-0.4,4c-0.1,0.5-0.2,1.1-0.2,1.6c0,0.5-0.1,1.1-0.1,1.6v0.1c0,0.2,0,0.5-0.1,0.8
		c0,0.3-0.1,0.5-0.1,0.8c-0.1,1.1-0.2,2.2-0.4,3.3c-0.1,1.1-0.3,2.2-0.4,3.3v0.1c0,0.7-0.3,1.1-0.8,1.2c-0.2,0-0.5-0.1-0.6-0.3
		c-0.2-0.1-0.3-0.4-0.3-0.8l0.1-0.2c0.7-4.7,1.2-9.3,1.7-13.9c0.5-4.6,0.9-9.5,1.3-14.8c0-0.7,0.1-1.5,0.3-2.5
		c0.1-1,0.2-1.9,0.3-2.8l0.3-2.3c0.2-2.8,0.5-5.4,0.9-7.8C259,8.9,259.5,6.4,259.9,3.9z M259.9,13.9c-0.3,2.9-0.7,5.8-1,8.6
		c-0.3,2.9-0.6,5.8-0.9,8.9l-0.1,2.2c0.4,0.1,0.8,0.1,1.3,0.1c0.5,0,0.9-0.1,1.2-0.1c0.7,0,1.3,0,1.9,0.1c0.6,0.1,1.2,0,1.8-0.1
		l-0.3-2.8v-0.1c-0.1-1.8-0.3-3.7-0.5-5.6c-0.2-1.9-0.3-3.8-0.5-5.6c-0.1-1.1-0.2-2.2-0.3-3.5c-0.1-1.3-0.3-2.5-0.4-3.8
		c-0.2-1.2-0.3-2.4-0.5-3.6c-0.2-1.1-0.4-2.1-0.6-2.9c-0.1,0.4-0.2,1-0.3,1.7c-0.1,0.7-0.2,1.4-0.3,2.1c-0.1,0.7-0.2,1.5-0.2,2.3
		C260,12.6,259.9,13.3,259.9,13.9z"/>
</g>
</svg>
